<svg width="40" height="40" viewBox="0 0 40 40" fill="none" xmlns="http://www.w3.org/2000/svg">
<g clip-path="url(#clip0_919_3336)">
<path d="M19.9997 3.3335C10.7997 3.3335 3.33301 10.8002 3.33301 20.0002C3.33301 29.2002 10.7997 36.6668 19.9997 36.6668C29.1997 36.6668 36.6663 29.2002 36.6663 20.0002C36.6663 10.8002 29.1997 3.3335 19.9997 3.3335ZM19.9997 32.9168C12.883 32.9168 7.08301 27.1168 7.08301 20.0002C7.08301 17.7335 7.68301 15.5168 8.79967 13.5668C9.13301 12.9668 9.89967 12.7668 10.4997 13.1002L20.6163 18.9168C21.2163 19.2668 21.4163 20.0168 21.083 20.6168C20.733 21.2168 19.983 21.4168 19.383 21.0835L14.533 18.3002C14.3663 18.8502 14.2497 19.4168 14.2497 20.0002C14.2497 23.1668 16.833 25.7502 19.9997 25.7502C23.1663 25.7502 25.7497 23.1668 25.7497 20.0002C25.7497 16.8335 23.1663 14.2502 19.9997 14.2502C19.1497 14.2502 18.3163 14.4335 17.5497 14.8002C16.9163 15.1002 16.183 14.8335 15.883 14.2002C15.583 13.5835 15.8497 12.8335 16.483 12.5335C17.583 12.0168 18.7663 11.7502 19.9997 11.7502C24.5497 11.7502 28.2497 15.4502 28.2497 20.0002C28.2497 24.5502 24.5497 28.2502 19.9997 28.2502C15.4497 28.2502 11.7497 24.5502 11.7497 20.0002C11.7497 18.9835 11.9497 17.9668 12.3163 17.0168L10.3997 15.9335C9.86634 17.2168 9.58301 18.6002 9.58301 20.0002C9.58301 25.7502 14.2497 30.4168 19.9997 30.4168C25.7497 30.4168 30.4163 25.7502 30.4163 20.0002C30.4163 14.2502 25.7497 9.5835 19.9997 9.5835C17.733 9.5835 15.5663 10.3002 13.7497 11.6668C13.1997 12.0835 12.4163 11.9668 11.9997 11.4168C11.583 10.8668 11.6997 10.0835 12.2497 9.66683C14.4997 7.9835 17.183 7.0835 19.9997 7.0835C27.1163 7.0835 32.9163 12.8835 32.9163 20.0002C32.9163 27.1168 27.1163 32.9168 19.9997 32.9168Z" fill="#F00C0C"/>
</g>
<defs>
<clipPath id="clip0_919_3336">
<rect width="40" height="40" fill="white"/>
</clipPath>
</defs>
</svg>
