<svg width="40" height="40" viewBox="0 0 40 40" fill="none" xmlns="http://www.w3.org/2000/svg">
<path d="M29.2167 12.9502C29.1001 12.9335 28.9834 12.9335 28.8667 12.9502C26.2834 12.8668 24.2334 10.7502 24.2334 8.15016C24.2334 5.50016 26.3834 3.3335 29.0501 3.3335C31.7001 3.3335 33.8667 5.4835 33.8667 8.15016C33.8501 10.7502 31.8001 12.8668 29.2167 12.9502Z" fill="#F00C0C"/>
<path d="M34.6503 24.5002C32.7837 25.7502 30.167 26.2169 27.7503 25.9002C28.3837 24.5335 28.717 23.0169 28.7337 21.4169C28.7337 19.7502 28.367 18.1669 27.667 16.7835C30.1337 16.4502 32.7503 16.9169 34.6337 18.1669C37.267 19.9002 37.267 22.7502 34.6503 24.5002Z" fill="#F00C0C"/>
<path d="M10.7329 12.9502C10.8496 12.9335 10.9663 12.9335 11.0829 12.9502C13.6663 12.8668 15.7163 10.7502 15.7163 8.15016C15.7163 5.4835 13.5663 3.3335 10.8996 3.3335C8.24961 3.3335 6.09961 5.4835 6.09961 8.15016C6.09961 10.7502 8.14961 12.8668 10.7329 12.9502Z" fill="#F00C0C"/>
<path d="M10.9169 21.4167C10.9169 23.0333 11.2669 24.5667 11.9002 25.95C9.5502 26.2 7.1002 25.7 5.3002 24.5167C2.66686 22.7667 2.66686 19.9167 5.3002 18.1667C7.08353 16.9667 9.6002 16.4833 11.9669 16.75C11.2835 18.15 10.9169 19.7333 10.9169 21.4167Z" fill="#F00C0C"/>
<path d="M20.2 26.45C20.0667 26.4333 19.9167 26.4333 19.7667 26.45C16.7 26.35 14.25 23.8333 14.25 20.7333C14.2667 17.5667 16.8167 15 20 15C23.1667 15 25.7333 17.5667 25.7333 20.7333C25.7167 23.8333 23.2833 26.35 20.2 26.45Z" fill="#F00C0C"/>
<path d="M14.783 29.8999C12.2663 31.5832 12.2663 34.3499 14.783 36.0166C17.6497 37.9332 22.3497 37.9332 25.2163 36.0166C27.733 34.3332 27.733 31.5666 25.2163 29.8999C22.3663 27.9832 17.6663 27.9832 14.783 29.8999Z" fill="#F00C0C"/>
</svg>
