<svg width="20" height="20" viewBox="0 0 20 20" fill="none" xmlns="http://www.w3.org/2000/svg">
<g clip-path="url(#clip0_919_3237)">
<path d="M16.6667 15.0007C16.8791 15.0009 17.0834 15.0822 17.2378 15.228C17.3923 15.3738 17.4852 15.5731 17.4976 15.7851C17.5101 15.9972 17.4411 16.206 17.3048 16.3688C17.1685 16.5317 16.9751 16.6364 16.7642 16.6615L16.6667 16.6673H3.33333C3.12093 16.6671 2.91664 16.5858 2.76219 16.4399C2.60775 16.2941 2.5148 16.0949 2.50236 15.8828C2.48991 15.6708 2.5589 15.462 2.69522 15.2991C2.83155 15.1362 3.02492 15.0316 3.23583 15.0065L3.33333 15.0007H16.6667ZM16.6667 9.16732C16.8877 9.16732 17.0996 9.25512 17.2559 9.4114C17.4122 9.56768 17.5 9.77964 17.5 10.0007C17.5 10.2217 17.4122 10.4336 17.2559 10.5899C17.0996 10.7462 16.8877 10.834 16.6667 10.834H3.33333C3.11232 10.834 2.90036 10.7462 2.74408 10.5899C2.5878 10.4336 2.5 10.2217 2.5 10.0007C2.5 9.77964 2.5878 9.56768 2.74408 9.4114C2.90036 9.25512 3.11232 9.16732 3.33333 9.16732H16.6667ZM16.6667 3.33398C16.8877 3.33398 17.0996 3.42178 17.2559 3.57806C17.4122 3.73434 17.5 3.9463 17.5 4.16732C17.5 4.38833 17.4122 4.60029 17.2559 4.75657C17.0996 4.91285 16.8877 5.00065 16.6667 5.00065H3.33333C3.11232 5.00065 2.90036 4.91285 2.74408 4.75657C2.5878 4.60029 2.5 4.38833 2.5 4.16732C2.5 3.9463 2.5878 3.73434 2.74408 3.57806C2.90036 3.42178 3.11232 3.33398 3.33333 3.33398H16.6667Z" fill="black"/>
</g>
<defs>
<clipPath id="clip0_919_3237">
<rect width="20" height="20" fill="white"/>
</clipPath>
</defs>
</svg>
