<svg width="32" height="32" viewBox="0 0 32 32" fill="none" xmlns="http://www.w3.org/2000/svg">
<g clip-path="url(#clip0_919_3296)">
<path fill-rule="evenodd" clip-rule="evenodd" d="M16.0003 2.66675C23.3643 2.66675 29.3337 8.63608 29.3337 16.0001C29.3337 23.3641 23.3643 29.3334 16.0003 29.3334C8.63633 29.3334 2.66699 23.3641 2.66699 16.0001C2.66699 8.63608 8.63633 2.66675 16.0003 2.66675ZM5.60699 18.4134C6.0736 20.4166 7.10871 22.2424 8.58794 23.6715C10.0672 25.1006 11.9276 26.0721 13.9457 26.4694C13.6883 22.9694 12.5377 20.8694 11.0843 19.7081C9.69232 18.5947 7.80433 18.1641 5.60699 18.4121V18.4134ZM20.9163 19.7067C19.463 20.8707 18.3123 22.9694 18.055 26.4694C20.0732 26.072 21.9338 25.1003 23.413 23.6709C24.8923 22.2416 25.9273 20.4155 26.3937 18.4121C24.1963 18.1641 22.3083 18.5947 20.9163 19.7081V19.7067ZM16.0003 5.33341C13.5152 5.33375 11.1082 6.20145 9.19444 7.78681C7.28071 9.37217 5.98034 11.5758 5.51766 14.0174L5.46033 14.3481L8.40699 13.7587C9.18299 13.6041 9.92032 13.1947 10.7443 12.6387L11.3803 12.1961C12.443 11.4414 14.0177 10.6667 16.0003 10.6667C17.851 10.6667 19.3457 11.3414 20.4003 12.0454L21.2563 12.6387C21.9763 13.1254 22.6323 13.4987 23.3043 13.6894L23.5937 13.7587L26.5403 14.3481C26.146 11.836 24.8673 9.54733 22.9349 7.89453C21.0024 6.24173 18.5432 5.33347 16.0003 5.33341Z" fill="white"/>
</g>
<defs>
<clipPath id="clip0_919_3296">
<rect width="32" height="32" fill="white"/>
</clipPath>
</defs>
</svg>
