<svg width="24" height="24" viewBox="0 0 24 24" fill="none" xmlns="http://www.w3.org/2000/svg">
<g clip-path="url(#clip0_919_3251)">
<path fill-rule="evenodd" clip-rule="evenodd" d="M3.46799 16.7454C3.96199 15.7874 5.00699 15.1454 6.27199 15.3044C7.48599 15.4564 8.85999 15.6844 10.242 16.0304C12.489 16.5924 14.423 17.7304 15.755 18.6844L16.155 18.9794L16.339 19.1194L16.675 19.3854L16.966 19.6254L17.313 19.9274C18.157 20.6784 17.583 21.9054 16.629 21.9954L16.517 22.0004H7.92199C7.21488 22.0003 6.51581 21.8503 5.87095 21.5602C5.22609 21.2701 4.65009 20.8465 4.18099 20.3174L4.01799 20.1234L3.81799 19.8744C3.04499 18.9074 2.97999 17.6914 3.46799 16.7454ZM6.02399 17.2884C5.62399 17.2384 5.37099 17.4194 5.24499 17.6624C5.1788 17.796 5.14895 17.9448 5.15843 18.0936C5.1679 18.2425 5.21638 18.3862 5.29899 18.5104L5.37999 18.6254L5.57999 18.8754C5.84059 19.2009 6.16621 19.4686 6.53605 19.6613C6.90589 19.8539 7.31185 19.9674 7.72799 19.9944L7.92199 20.0004H14.143C12.993 19.2274 11.466 18.3974 9.75699 17.9704C8.5273 17.6694 7.28075 17.441 6.02399 17.2884ZM19 2.00037C19.62 2.00037 20.074 2.33837 20.36 2.70437C20.633 3.05137 20.81 3.48437 20.933 3.90037C21.183 4.74337 21.3 5.82737 21.345 6.90937C21.382 7.82037 21.369 8.78537 21.322 9.68537L21.28 10.3454C21.21 11.3134 21.1 12.1604 20.976 12.7174C20.443 15.1154 19.511 16.5644 18.468 17.3544C17.469 18.1104 16.311 18.2744 15.553 17.8944C15.222 17.7294 14.901 17.4324 14.635 17.1244C14.3152 16.7488 14.0459 16.3329 13.834 15.8874C13.368 14.9124 13.081 13.5944 13.551 12.1844C13.842 11.3114 14.403 10.7674 14.897 10.3604L15.215 10.1044C15.778 9.65637 16.246 9.27237 16.605 8.55337C16.698 8.36737 16.766 7.99337 16.782 7.35837L16.785 7.05537L16.777 6.30937C16.772 6.00937 16.767 5.69237 16.77 5.38537C16.777 4.73537 16.818 3.96537 17.07 3.33837C17.204 3.00537 17.418 2.65737 17.767 2.39337C18.1234 2.13003 18.5569 1.99186 19 2.00037ZM18.903 4.15037C18.82 4.40237 18.776 4.81037 18.77 5.40537V5.68737L18.779 6.37637C18.784 6.71137 18.789 7.06437 18.781 7.40637C18.765 8.04837 18.705 8.82637 18.394 9.44737C17.959 10.3194 17.401 10.8844 16.904 11.3074L16.614 11.5474L16.461 11.6684C15.866 12.1424 15.592 12.3854 15.449 12.8164C15.185 13.6064 15.329 14.3794 15.639 15.0244C15.792 15.3474 15.979 15.6194 16.152 15.8204C16.232 15.9144 16.301 15.9814 16.351 16.0264L16.426 16.0904L16.521 16.0864C16.654 16.0754 16.915 16.0224 17.261 15.7604C17.808 15.3454 18.557 14.3854 19.024 12.2834C19.066 12.0924 19.108 11.8474 19.147 11.5624L19.203 11.1054C19.213 11.0254 19.221 10.9424 19.229 10.8574L19.276 10.3274L19.315 9.75937L19.331 9.46437L19.354 8.85837C19.3732 8.23614 19.3708 7.61344 19.347 6.99137C19.304 5.96437 19.195 5.07437 19.015 4.46837C18.984 4.35992 18.9466 4.2544 18.903 4.15037Z" fill="white"/>
</g>
<defs>
<clipPath id="clip0_919_3251">
<rect width="24" height="24" fill="white"/>
</clipPath>
</defs>
</svg>
