<svg width="40" height="40" viewBox="0 0 40 40" fill="none" xmlns="http://www.w3.org/2000/svg">
<path d="M33.6837 13.0332L20.8504 20.4666C20.3337 20.7666 19.6837 20.7666 19.1504 20.4666L6.31702 13.0332C5.40036 12.4999 5.16702 11.2499 5.86702 10.4666C6.35036 9.91657 6.90036 9.46657 7.48369 9.1499L16.517 4.1499C18.4504 3.06657 21.5837 3.06657 23.517 4.1499L32.5504 9.1499C33.1337 9.46657 33.6837 9.93324 34.167 10.4666C34.8337 11.2499 34.6004 12.4999 33.6837 13.0332Z" fill="#F00C0C"/>
<path d="M19.0501 23.5666V34.9333C19.0501 36.2 17.7668 37.0333 16.6335 36.4833C13.2001 34.8 7.4168 31.65 7.4168 31.65C5.38346 30.5 3.7168 27.6 3.7168 25.2166V16.6166C3.7168 15.3 5.10013 14.4666 6.23346 15.1166L18.2168 22.0666C18.7168 22.3833 19.0501 22.95 19.0501 23.5666Z" fill="#F00C0C"/>
<path d="M20.9502 23.5666V34.9333C20.9502 36.2 22.2335 37.0333 23.3669 36.4833C26.8002 34.8 32.5835 31.65 32.5835 31.65C34.6169 30.5 36.2835 27.6 36.2835 25.2166V16.6166C36.2835 15.3 34.9002 14.4666 33.7669 15.1166L21.7835 22.0666C21.2835 22.3833 20.9502 22.95 20.9502 23.5666Z" fill="#F00C0C"/>
</svg>
