<svg width="40" height="40" viewBox="0 0 40 40" fill="none" xmlns="http://www.w3.org/2000/svg">
<path d="M32.2838 8.15019L22.5171 3.8002C21.0838 3.16686 18.9171 3.16686 17.4838 3.8002L7.71712 8.15019C5.25046 9.25019 4.88379 10.7502 4.88379 11.5502C4.88379 12.3502 5.25046 13.8502 7.71712 14.9502L17.4838 19.3002C18.2005 19.6169 19.1005 19.7835 20.0005 19.7835C20.9005 19.7835 21.8005 19.6169 22.5171 19.3002L32.2838 14.9502C34.7505 13.8502 35.1171 12.3502 35.1171 11.5502C35.1171 10.7502 34.7671 9.25019 32.2838 8.15019Z" fill="#F00C0C"/>
<path d="M19.9995 28.4002C19.3662 28.4002 18.7329 28.2668 18.1495 28.0168L6.91621 23.0168C5.19954 22.2502 3.86621 20.2002 3.86621 18.3168C3.86621 17.6335 4.41621 17.0835 5.09954 17.0835C5.78288 17.0835 6.33288 17.6335 6.33288 18.3168C6.33288 19.2168 7.08288 20.3835 7.91621 20.7502L19.1495 25.7502C19.6829 25.9835 20.2995 25.9835 20.8329 25.7502L32.0662 20.7502C32.8995 20.3835 33.6495 19.2335 33.6495 18.3168C33.6495 17.6335 34.1995 17.0835 34.8829 17.0835C35.5662 17.0835 36.1162 17.6335 36.1162 18.3168C36.1162 20.1835 34.7829 22.2502 33.0662 23.0168L21.8329 28.0168C21.2662 28.2668 20.6329 28.4002 19.9995 28.4002Z" fill="#F00C0C"/>
<path d="M19.9995 36.6668C19.3662 36.6668 18.7329 36.5334 18.1495 36.2834L6.91621 31.2834C5.06621 30.4668 3.86621 28.6168 3.86621 26.5834C3.86621 25.9001 4.41621 25.3501 5.09954 25.3501C5.78288 25.3501 6.33288 25.9001 6.33288 26.5834C6.33288 27.6334 6.94954 28.5834 7.91621 29.0168L19.1495 34.0168C19.6829 34.2501 20.2995 34.2501 20.8329 34.0168L32.0662 29.0168C33.0162 28.6001 33.6495 27.6334 33.6495 26.5834C33.6495 25.9001 34.1995 25.3501 34.8829 25.3501C35.5662 25.3501 36.1162 25.9001 36.1162 26.5834C36.1162 28.6168 34.9162 30.4501 33.0662 31.2834L21.8329 36.2834C21.2662 36.5334 20.6329 36.6668 19.9995 36.6668Z" fill="#F00C0C"/>
</svg>
