<svg width="40" height="40" viewBox="0 0 40 40" fill="none" xmlns="http://www.w3.org/2000/svg">
<path d="M15.5329 22.1333H20.6829V34.1333C20.6829 35.9 22.8829 36.7333 24.0496 35.4L36.6662 21.0666C37.7662 19.8166 36.8829 17.8666 35.2162 17.8666H30.0662V5.86662C30.0662 4.09995 27.8662 3.26662 26.6996 4.59995L14.0829 18.9333C12.9996 20.1833 13.8829 22.1333 15.5329 22.1333Z" fill="#F00C0C"/>
<path d="M14.1667 7.9165H2.5C1.81667 7.9165 1.25 7.34984 1.25 6.6665C1.25 5.98317 1.81667 5.4165 2.5 5.4165H14.1667C14.85 5.4165 15.4167 5.98317 15.4167 6.6665C15.4167 7.34984 14.85 7.9165 14.1667 7.9165Z" fill="#F00C0C"/>
<path d="M12.5 34.5835H2.5C1.81667 34.5835 1.25 34.0168 1.25 33.3335C1.25 32.6502 1.81667 32.0835 2.5 32.0835H12.5C13.1833 32.0835 13.75 32.6502 13.75 33.3335C13.75 34.0168 13.1833 34.5835 12.5 34.5835Z" fill="#F00C0C"/>
<path d="M7.5 21.25H2.5C1.81667 21.25 1.25 20.6833 1.25 20C1.25 19.3167 1.81667 18.75 2.5 18.75H7.5C8.18333 18.75 8.75 19.3167 8.75 20C8.75 20.6833 8.18333 21.25 7.5 21.25Z" fill="#F00C0C"/>
</svg>
