<svg width="32" height="32" viewBox="0 0 32 32" fill="none" xmlns="http://www.w3.org/2000/svg">
<path d="M28.8638 21.4999C28.9958 21.7291 29.0317 22.0013 28.9635 22.2569C28.8954 22.5125 28.7287 22.7307 28.5 22.8637L16.5 29.8637C16.3471 29.9528 16.1733 29.9998 15.9963 29.9998C15.8192 29.9998 15.6454 29.9528 15.4925 29.8637L3.4925 22.8637C3.26712 22.7282 3.10415 22.5095 3.03888 22.2547C2.9736 22 3.01128 21.7299 3.14375 21.5027C3.27622 21.2756 3.49282 21.1097 3.74666 21.0411C4.0005 20.9725 4.27114 21.0067 4.5 21.1362L16 27.8424L27.5 21.1362C27.7292 21.0041 28.0014 20.9682 28.257 21.0364C28.5126 21.1045 28.7308 21.2712 28.8638 21.4999ZM27.5 15.1362L16 21.8424L4.5 15.1362C4.27231 15.0228 4.00997 15.0004 3.76638 15.0737C3.5228 15.1469 3.31627 15.3102 3.18884 15.5303C3.06141 15.7505 3.02266 16.0109 3.08046 16.2586C3.13827 16.5063 3.28829 16.7227 3.5 16.8637L15.5 23.8637C15.6529 23.9528 15.8267 23.9998 16.0037 23.9998C16.1808 23.9998 16.3546 23.9528 16.5075 23.8637L28.5075 16.8637C28.6228 16.7984 28.7239 16.711 28.8051 16.6064C28.8863 16.5017 28.9459 16.382 28.9804 16.2542C29.015 16.1264 29.0238 15.9929 29.0064 15.8617C28.9889 15.7304 28.9456 15.6039 28.8789 15.4895C28.8122 15.3751 28.7234 15.2751 28.6177 15.1953C28.5121 15.1155 28.3916 15.0575 28.2633 15.0246C28.135 14.9917 28.0015 14.9847 27.8705 15.0038C27.7394 15.023 27.6135 15.0679 27.5 15.1362ZM3 9.9999C3.0004 9.82475 3.04679 9.65278 3.13454 9.50119C3.22229 9.34961 3.34831 9.22373 3.5 9.13615L15.5 2.13615C15.6529 2.04698 15.8267 2 16.0037 2C16.1808 2 16.3546 2.04698 16.5075 2.13615L28.5075 9.13615C28.6585 9.22422 28.7837 9.35031 28.8707 9.50187C28.9578 9.65342 29.0036 9.82513 29.0036 9.9999C29.0036 10.1747 28.9578 10.3464 28.8707 10.4979C28.7837 10.6495 28.6585 10.7756 28.5075 10.8637L16.5075 17.8637C16.3546 17.9528 16.1808 17.9998 16.0037 17.9998C15.8267 17.9998 15.6529 17.9528 15.5 17.8637L3.5 10.8637C3.34831 10.7761 3.22229 10.6502 3.13454 10.4986C3.04679 10.347 3.0004 10.1751 3 9.9999ZM5.985 9.9999L16 15.8424L26.015 9.9999L16 4.1574L5.985 9.9999Z" fill="white"/>
</svg>
