<svg width="95" height="35" viewBox="0 0 95 35" fill="none" xmlns="http://www.w3.org/2000/svg">
<path d="M14.7538 23.8368L10.8998 17.7293C12.353 17.0133 13.2586 15.5391 13.2586 13.6437C13.2586 11.1164 11.0893 9.09464 8.60424 9.09464H2.91797V23.8368H6.03489V18.2137H7.63547L10.963 23.8368H14.7538ZM6.03489 12.1063H8.28833C9.29923 12.1063 10.0995 12.8434 10.0995 13.7911C10.0995 14.7809 9.29923 15.518 8.28833 15.518H6.03489V12.1063Z" fill="#F00C0C"/>
<path d="M19.329 13.2856C16.2753 13.2856 13.9586 15.6023 13.9586 18.6771C13.9586 21.7519 16.2753 24.0474 19.329 24.0474C22.3617 24.0474 24.6994 21.7519 24.6994 18.6771C24.6994 15.6023 22.3617 13.2856 19.329 13.2856ZM19.329 16.1288C20.719 16.1288 21.7931 17.2028 21.7931 18.6771C21.7931 20.1092 20.719 21.2043 19.329 21.2043C17.918 21.2043 16.865 20.1092 16.865 18.6771C16.865 17.2028 17.918 16.1288 19.329 16.1288Z" fill="#F00C0C"/>
<path d="M32.1677 21.0779C31.936 21.1622 31.5359 21.2253 31.2411 21.2253C30.3776 21.2253 29.6405 20.6146 29.6405 19.6458V16.3183H32.1888V13.4962H29.6405V10.7795H26.671V13.4962H24.7545V16.3183H26.671V19.7932C26.671 22.4679 28.3769 24.0053 30.7988 24.0053C31.3464 24.0053 31.936 23.9 32.3151 23.7105L32.1677 21.0779Z" fill="#F00C0C"/>
<path d="M40.6339 13.4962V14.9704C39.9179 13.8964 38.8017 13.2856 37.3485 13.2856C34.6739 13.2856 32.5468 15.6865 32.5468 18.656C32.5468 21.6255 34.6739 24.0474 37.3485 24.0474C38.8017 24.0474 39.9179 23.4367 40.6339 22.3626V23.8368H43.6034V13.4962H40.6339ZM38.0435 21.2043C36.6114 21.2043 35.4531 20.0881 35.4531 18.656C35.4531 17.245 36.6114 16.1077 38.0435 16.1077C39.4967 16.1077 40.6339 17.2239 40.6339 18.656C40.6339 20.1092 39.4967 21.2043 38.0435 21.2043Z" fill="#F00C0C"/>
<path d="M50.4383 8.88403C47.4056 8.88403 45.2785 10.8216 45.2785 13.3277C45.2785 18.6349 52.7549 16.9922 52.7549 19.4773C52.7549 20.4251 51.8493 21.0147 50.5225 21.0147C48.7745 21.0147 47.532 20.1302 46.4158 18.9719L44.4151 21.2464C45.6787 22.847 48.248 24.0474 50.5225 24.0474C53.9764 24.0474 55.9561 21.794 55.9561 19.4563C55.9561 14.0859 48.4165 15.6023 48.4165 13.0961C48.4165 12.38 49.1326 11.8957 50.1856 11.8957C51.386 11.8957 52.8181 12.5275 53.9132 13.6015L55.7244 11.1375C54.6082 9.85281 52.3337 8.88403 50.4383 8.88403Z" fill="#F00C0C"/>
<path d="M62.8801 13.2856C61.7008 13.2856 60.732 13.8543 60.0791 14.8441V9.09464H57.1096V23.8368H60.0791V18.3611C60.0791 17.0133 60.8794 16.1288 62.122 16.1288C63.3435 16.1288 64.1648 17.0133 64.1648 18.3611V23.8368H67.1343V17.9821C67.1343 15.0547 65.5337 13.2856 62.8801 13.2856Z" fill="#F00C0C"/>
<path d="M73.625 13.2856C70.5713 13.2856 68.2546 15.6023 68.2546 18.6771C68.2546 21.7519 70.5713 24.0474 73.625 24.0474C76.6577 24.0474 78.9954 21.7519 78.9954 18.6771C78.9954 15.6023 76.6577 13.2856 73.625 13.2856ZM73.625 16.1288C75.015 16.1288 76.089 17.2028 76.089 18.6771C76.089 20.1092 75.015 21.2043 73.625 21.2043C72.214 21.2043 71.1609 20.1092 71.1609 18.6771C71.1609 17.2028 72.214 16.1288 73.625 16.1288Z" fill="#F00C0C"/>
<path d="M82.4486 23.8368H84.7441L86.8502 18.1716L88.9351 23.8368H91.2728L95.0005 13.4962H91.7993L90.0934 19.1614L88.0085 13.4962H85.6918L83.628 19.1614L81.901 13.4962H78.7209L82.4486 23.8368Z" fill="#F00C0C"/>
</svg>
