<svg width="104" height="38" viewBox="0 0 104 38" fill="none" xmlns="http://www.w3.org/2000/svg">
<path d="M23.603 13.5949H19.3357L16.3153 21.8801L13.2396 13.5949H9L14.6528 27.2003H17.9779L23.603 13.5949Z" fill="#F00C0C"/>
<path d="M36.5936 19.8018C36.5936 16.1719 33.7118 13.3178 30.0264 13.3178C26.0639 13.3178 22.9604 16.3658 22.9604 20.3283C22.9604 24.3739 26.1193 27.4774 30.1095 27.4774C32.9359 27.4774 35.2081 26.4244 36.2056 24.6233L33.1576 22.7668C32.6865 23.598 31.4119 24.1522 30.1926 24.1522C28.3361 24.1522 27.0615 23.1824 26.7012 21.3259H36.4827C36.5659 20.7994 36.5936 20.2729 36.5936 19.8018ZM26.7567 18.832C27.1169 17.3634 28.1976 16.4767 29.8324 16.4767C31.2733 16.4767 32.5203 17.4742 32.6865 18.832H26.7567Z" fill="#F00C0C"/>
<path d="M41.9915 7.80358H38.0845V27.2003H41.9915V7.80358Z" fill="#F00C0C"/>
<path d="M50.4243 13.3178C46.4064 13.3178 43.3584 16.3658 43.3584 20.4114C43.3584 24.457 46.4064 27.4774 50.4243 27.4774C54.4145 27.4774 57.4903 24.457 57.4903 20.4114C57.4903 16.3658 54.4145 13.3178 50.4243 13.3178ZM50.4243 17.0586C52.2532 17.0586 53.6663 18.4718 53.6663 20.4114C53.6663 22.2957 52.2532 23.7366 50.4243 23.7366C48.5678 23.7366 47.1823 22.2957 47.1823 20.4114C47.1823 18.4718 48.5678 17.0586 50.4243 17.0586Z" fill="#F00C0C"/>
<path d="M71.8293 23.5703L68.3656 22.0186C67.8392 23.0993 66.7585 23.7366 65.4284 23.7366C63.4888 23.7366 62.1033 22.2957 62.1033 20.4114C62.1033 18.4995 63.4888 17.0586 65.4284 17.0586C66.6199 17.0586 67.6175 17.6405 68.1163 18.5549L71.4137 16.6706C70.333 14.6478 68.0885 13.3178 65.4284 13.3178C61.3551 13.3178 58.2793 16.3658 58.2793 20.4114C58.2793 24.457 61.3551 27.4774 65.4284 27.4774C68.3379 27.4774 70.8041 25.9257 71.8293 23.5703Z" fill="#F00C0C"/>
<path d="M74.9913 7C73.6889 7 72.6082 8.08067 72.6082 9.35532C72.6082 10.6577 73.6889 11.7383 74.9913 11.7383C76.2936 11.7383 77.3743 10.6577 77.3743 9.35532C77.3743 8.08067 76.2936 7 74.9913 7ZM73.0516 13.5949V27.2003H76.9586V13.5949H73.0516Z" fill="#F00C0C"/>
<path d="M87.6604 23.5703C87.3556 23.6812 86.8291 23.7643 86.4412 23.7643C85.3051 23.7643 84.3352 22.9607 84.3352 21.6861V17.308H87.6881V13.5949H84.3352V10.0203H80.4282V13.5949H77.9066V17.308H80.4282V21.8801C80.4282 25.3992 82.6727 27.422 85.8593 27.422C86.5797 27.422 87.3556 27.2834 87.8544 27.034L87.6604 23.5703Z" fill="#F00C0C"/>
<path d="M98.4251 13.5949L95.4048 21.5475L92.3844 13.5949H88.1726L93.4097 26.0919L90.8881 31.717H95.0723L102.637 13.5949H98.4251Z" fill="#F00C0C"/>
</svg>
